<?xml version="1.0" encoding="UTF-8"?><svg xmlns="http://www.w3.org/2000/svg" xmlns:xlink="http://www.w3.org/1999/xlink" fill-opacity="1" color-rendering="auto" color-interpolation="auto" text-rendering="auto" stroke="black" stroke-linecap="square" width="436" stroke-miterlimit="10" shape-rendering="auto" stroke-opacity="1" fill="black" stroke-dasharray="none" font-weight="normal" stroke-width="1" height="227" font-family="'Dialog'" font-style="normal" stroke-linejoin="miter" font-size="12px" stroke-dashoffset="0" image-rendering="auto">
  <!--Generated by ySVG 2.6-->
  <defs id="genericDefs"/>
  <g>
    <defs id="defs1">
      <clipPath clipPathUnits="userSpaceOnUse" id="clipPath1">
        <path d="M0 0 L436 0 L436 227 L0 227 L0 0 Z"/>
      </clipPath>
      <clipPath clipPathUnits="userSpaceOnUse" id="clipPath2">
        <path d="M1447 217 L1883 217 L1883 444 L1447 444 L1447 217 Z"/>
      </clipPath>
    </defs>
    <g fill="none" text-rendering="geometricPrecision" shape-rendering="geometricPrecision" transform="translate(-1447,-217)" stroke="white">
      <rect x="1447" width="436" height="227" y="217" clip-path="url(#clipPath2)" stroke="none"/>
    </g>
    <g stroke="white" text-rendering="geometricPrecision" stroke-miterlimit="1.45" shape-rendering="geometricPrecision" transform="matrix(1,0,0,1,-1447,-217)" stroke-linecap="butt">
      <rect fill="none" x="1462.052" width="30" height="30" y="305.3697" clip-path="url(#clipPath2)"/>
      <rect fill="none" x="1511.634" width="11.6723" height="11" y="314.8697" clip-path="url(#clipPath2)"/>
      <rect fill="none" x="1542.8882" width="11.6723" height="11" y="314.8697" clip-path="url(#clipPath2)"/>
      <rect fill="none" x="1574.1424" width="11.6723" height="11" y="314.8697" clip-path="url(#clipPath2)"/>
      <rect fill="none" x="1605.3967" width="11.6723" height="11" y="314.8697" clip-path="url(#clipPath2)"/>
      <rect fill="none" x="1636.6509" width="11.6723" height="11" y="314.8697" clip-path="url(#clipPath2)"/>
      <rect fill="none" x="1667.9052" width="11.6723" height="11" y="314.8697" clip-path="url(#clipPath2)"/>
      <rect fill="none" x="1699.1594" width="11.6723" height="11" y="314.8697" clip-path="url(#clipPath2)"/>
      <rect fill="none" x="1730.4136" width="11.6723" height="11" y="314.8697" clip-path="url(#clipPath2)"/>
      <rect fill="none" x="1730.4136" width="11.6723" height="11" y="340.3697" clip-path="url(#clipPath2)"/>
      <rect fill="none" x="1730.4136" width="11.6723" height="11" y="365.8697" clip-path="url(#clipPath2)"/>
      <rect fill="none" x="1730.4136" width="11.6723" height="11" y="391.3697" clip-path="url(#clipPath2)"/>
      <rect fill="none" x="1761.6679" width="11.6723" height="11" y="391.3697" clip-path="url(#clipPath2)"/>
      <rect fill="none" x="1792.9221" width="11.6723" height="11" y="391.3697" clip-path="url(#clipPath2)"/>
      <rect fill="none" x="1824.1764" width="11.6723" height="11" y="391.3697" clip-path="url(#clipPath2)"/>
      <rect fill="none" x="1855.4306" width="11.6723" height="11" y="391.3697" clip-path="url(#clipPath2)"/>
      <rect fill="none" x="1855.4306" width="11.6723" height="11" y="365.8697" clip-path="url(#clipPath2)"/>
      <rect fill="none" x="1855.4306" width="11.6723" height="11" y="340.3697" clip-path="url(#clipPath2)"/>
      <rect fill="none" x="1542.8882" width="11.6723" height="11" y="357.5749" clip-path="url(#clipPath2)"/>
      <rect fill="none" x="1574.1424" width="11.6723" height="11" y="357.5749" clip-path="url(#clipPath2)"/>
      <rect fill="none" x="1605.3967" width="11.6723" height="11" y="357.5749" clip-path="url(#clipPath2)"/>
      <rect fill="none" x="1636.6509" width="11.6723" height="11" y="357.5749" clip-path="url(#clipPath2)"/>
      <rect fill="none" x="1574.1424" width="11.6723" height="11" y="232.8697" clip-path="url(#clipPath2)"/>
      <rect fill="none" x="1605.3967" width="11.6723" height="11" y="232.8697" clip-path="url(#clipPath2)"/>
      <rect fill="none" x="1636.6509" width="11.6723" height="11" y="232.8697" clip-path="url(#clipPath2)"/>
      <rect fill="none" x="1667.9052" width="11.6723" height="11" y="273.8697" clip-path="url(#clipPath2)"/>
      <rect fill="none" x="1699.1594" width="11.6723" height="11" y="273.8697" clip-path="url(#clipPath2)"/>
      <rect fill="none" x="1730.4136" width="11.6723" height="11" y="273.8697" clip-path="url(#clipPath2)"/>
      <rect fill="none" x="1730.4136" width="11.6723" height="11" y="232.8697" clip-path="url(#clipPath2)"/>
      <rect fill="none" x="1761.6679" width="11.6723" height="11" y="232.8697" clip-path="url(#clipPath2)"/>
      <rect fill="none" x="1792.9221" width="11.6723" height="11" y="232.8697" clip-path="url(#clipPath2)"/>
      <rect fill="none" x="1824.1764" width="11.6723" height="11" y="232.8697" clip-path="url(#clipPath2)"/>
      <rect fill="none" x="1855.4306" width="11.6723" height="11" y="232.8697" clip-path="url(#clipPath2)"/>
      <path fill="none" d="M1492.052 320.3697 L1511.6339 320.3697" clip-path="url(#clipPath2)"/>
      <path fill="none" d="M1523.3063 320.3697 L1542.8882 320.3697" clip-path="url(#clipPath2)"/>
      <path fill="none" d="M1554.5605 320.3697 L1574.1425 320.3697" clip-path="url(#clipPath2)"/>
      <path fill="none" d="M1585.8147 320.3697 L1605.3967 320.3697" clip-path="url(#clipPath2)"/>
      <path fill="none" d="M1617.069 320.3697 L1636.6509 320.3697" clip-path="url(#clipPath2)"/>
      <path fill="none" d="M1648.3232 320.3697 L1667.9052 320.3697" clip-path="url(#clipPath2)"/>
      <path fill="none" d="M1679.5775 320.3697 L1699.1594 320.3697" clip-path="url(#clipPath2)"/>
      <path fill="none" d="M1710.8317 320.3697 L1730.4137 320.3697" clip-path="url(#clipPath2)"/>
      <path fill="none" d="M1736.2498 325.8697 L1736.2498 340.3697" clip-path="url(#clipPath2)"/>
      <path fill="none" d="M1736.2498 351.3697 L1736.2498 365.8697" clip-path="url(#clipPath2)"/>
      <path fill="none" d="M1736.2498 376.8697 L1736.2498 391.3697" clip-path="url(#clipPath2)"/>
      <path fill="none" d="M1742.0859 396.8697 L1761.6678 396.8697" clip-path="url(#clipPath2)"/>
      <path fill="none" d="M1773.3402 396.8697 L1792.9221 396.8697" clip-path="url(#clipPath2)"/>
      <path fill="none" d="M1804.5945 396.8697 L1824.1764 396.8697" clip-path="url(#clipPath2)"/>
    </g>
    <g stroke-linecap="round" stroke="white" transform="matrix(1,0,0,1,-1447,-217)" stroke-dashoffset="2" text-rendering="geometricPrecision" shape-rendering="geometricPrecision" stroke-dasharray="0,8" stroke-width="2" stroke-miterlimit="1.45">
      <path fill="none" d="M1742.0859 320.3697 L1830.0126 320.3697 L1830.0126 391.3697" clip-path="url(#clipPath2)"/>
    </g>
    <g text-rendering="geometricPrecision" stroke="white" stroke-miterlimit="1.45" shape-rendering="geometricPrecision" transform="matrix(1,0,0,1,-1447,-217)" stroke-linecap="butt">
      <path fill="none" d="M1835.8486 396.8697 L1855.4305 396.8697" clip-path="url(#clipPath2)"/>
      <path fill="none" d="M1861.2667 391.3697 L1861.2667 376.8697" clip-path="url(#clipPath2)"/>
      <path fill="none" d="M1861.2667 365.8697 L1861.2667 351.3697" clip-path="url(#clipPath2)"/>
      <path fill="none" d="M1517.4701 325.8697 L1517.4701 363.0749 L1542.8882 363.0749" clip-path="url(#clipPath2)"/>
      <path fill="none" d="M1554.5605 363.0749 L1574.1425 363.0749" clip-path="url(#clipPath2)"/>
      <path fill="none" d="M1585.8147 363.0749 L1605.3967 363.0749" clip-path="url(#clipPath2)"/>
    </g>
    <g stroke-linecap="round" stroke="white" transform="matrix(1,0,0,1,-1447,-217)" stroke-dashoffset="2" text-rendering="geometricPrecision" shape-rendering="geometricPrecision" stroke-dasharray="0,8" stroke-width="2" stroke-miterlimit="1.45">
      <path fill="none" d="M1611.2328 357.5749 L1611.2328 340.3761 L1704.9956 340.3761 L1704.9956 325.8697" clip-path="url(#clipPath2)"/>
    </g>
    <g text-rendering="geometricPrecision" stroke="white"  stroke-miterlimit="1.45" shape-rendering="geometricPrecision" transform="matrix(1,0,0,1,-1447,-217)" stroke-linecap="butt">
      <path fill="none" d="M1617.069 363.0749 L1636.6509 363.0749" clip-path="url(#clipPath2)"/>
    </g>
    <g stroke-linecap="round" stroke="white" transform="matrix(1,0,0,1,-1447,-217)" stroke-dashoffset="2" text-rendering="geometricPrecision" shape-rendering="geometricPrecision" stroke-dasharray="0,8" stroke-width="2" stroke-miterlimit="1.45">
      <path fill="none" d="M1730.4137 396.8697 L1706.0286 396.8697 L1706.0286 363.0749 L1648.3232 363.0749" clip-path="url(#clipPath2)"/>
    </g>
    <g text-rendering="geometricPrecision" stroke="white" stroke-miterlimit="1.45" shape-rendering="geometricPrecision" transform="matrix(1,0,0,1,-1447,-217)" stroke-linecap="butt">
      <path fill="none" d="M1548.7244 314.8697 L1548.7244 238.3697 L1574.1425 238.3697" clip-path="url(#clipPath2)"/>
      <path fill="none" d="M1585.8147 238.3697 L1605.3967 238.3697" clip-path="url(#clipPath2)"/>
      <path fill="none" d="M1617.069 238.3697 L1636.6509 238.3697" clip-path="url(#clipPath2)"/>
      <path fill="none" d="M1646.6797 314.8697 L1669.5487 284.8697" clip-path="url(#clipPath2)"/>
      <path fill="none" d="M1679.5775 279.3697 L1699.1594 279.3697" clip-path="url(#clipPath2)"/>
      <path fill="none" d="M1710.8317 279.3697 L1730.4137 279.3697" clip-path="url(#clipPath2)"/>
      <path fill="none" d="M1736.2498 273.8697 L1736.2498 243.8697" clip-path="url(#clipPath2)"/>
    </g>
    <g stroke-linecap="round" stroke="white" transform="matrix(1,0,0,1,-1447,-217)" stroke-dashoffset="2" text-rendering="geometricPrecision" shape-rendering="geometricPrecision" stroke-dasharray="0,8" stroke-width="2" stroke-miterlimit="1.45">
      <path fill="none" d="M1648.3232 238.3697 L1730.4137 238.3697" clip-path="url(#clipPath2)"/>
    </g>
    <g text-rendering="geometricPrecision" stroke="white" stroke-miterlimit="1.45" shape-rendering="geometricPrecision" transform="matrix(1,0,0,1,-1447,-217)" stroke-linecap="butt">
      <path fill="none" d="M1742.0859 238.3697 L1761.6678 238.3697" clip-path="url(#clipPath2)"/>
      <path fill="none" d="M1773.3402 238.3697 L1792.9221 238.3697" clip-path="url(#clipPath2)"/>
      <path fill="none" d="M1804.5945 238.3697 L1824.1764 238.3697" clip-path="url(#clipPath2)"/>
      <path fill="none" d="M1835.8486 238.3697 L1855.4305 238.3697" clip-path="url(#clipPath2)"/>
    </g>
    <g stroke-linecap="round" stroke="white" transform="matrix(1,0,0,1,-1447,-217)" stroke-dashoffset="2" text-rendering="geometricPrecision" shape-rendering="geometricPrecision" stroke-dasharray="0,8" stroke-width="2" stroke-miterlimit="1.45">
      <path fill="none" d="M1861.2667 340.3697 L1861.2667 243.8697" clip-path="url(#clipPath2)"/>
      <path fill="none" d="M1567.0936 406.3697 L1627.4871 406.3697" clip-path="url(#clipPath2)"/>
    </g>
    <g text-rendering="geometricPrecision" stroke="white" stroke-miterlimit="1.45" shape-rendering="geometricPrecision" font-family="sans-serif" transform="matrix(1,0,0,1,-1447,-217)" stroke-linecap="butt">
      <text x="1540.5353" xml:space="preserve" y="424.14" clip-path="url(#clipPath2)" stroke="none" fill="white">Switchable branch</text>
    </g>
  </g>
</svg>
