<?xml version="1.0" encoding="UTF-8" standalone="no"?>
<svg
   id="Layer_1"
   data-name="Layer 1"
   viewBox="0 0 121.28 122.88"
   version="1.1"
   sodipodi:docname="connect-people-icon.svg"
   inkscape:version="1.1.2 (0a00cf5339, 2022-02-04)"
   xmlns:inkscape="http://www.inkscape.org/namespaces/inkscape"
   xmlns:sodipodi="http://sodipodi.sourceforge.net/DTD/sodipodi-0.dtd"
   xmlns="http://www.w3.org/2000/svg"
   xmlns:svg="http://www.w3.org/2000/svg"
   xmlns:rdf="http://www.w3.org/1999/02/22-rdf-syntax-ns#"
   xmlns:cc="http://creativecommons.org/ns#"
   xmlns:dc="http://purl.org/dc/elements/1.1/">
  <defs
     id="defs9" />
  <sodipodi:namedview
     id="namedview7"
     pagecolor="#ffffff"
     bordercolor="#666666"
     borderopacity="1.0"
     inkscape:pageshadow="2"
     inkscape:pageopacity="0.0"
     inkscape:pagecheckerboard="0"
     showgrid="false"
     inkscape:zoom="6.3639324"
     inkscape:cx="60.575753"
     inkscape:cy="61.439999"
     inkscape:window-width="1920"
     inkscape:window-height="1043"
     inkscape:window-x="0"
     inkscape:window-y="0"
     inkscape:window-maximized="1"
     inkscape:current-layer="Layer_1" />
  <title
     id="title2">connect-people</title>
  <path
     d="M 50.51,46 64,37 C 59.41123,23.566572 65.629466,8.827387 78.450654,2.7419474 91.271532,-3.3433454 106.61403,1.1619956 114.12102,13.209141 121.62801,25.256285 118.91231,41.01431 107.8005,49.842297 96.688419,58.670498 80.717261,57.758287 70.68,47.72 70.25,47.28 69.83,46.83 69.43,46.37 L 55.1,55.93 c 0.508362,2.129188 0.763463,4.310968 0.76,6.5 -0.0015,1.456578 -0.115165,2.910878 -0.34,4.35 l 16.15,10.56 c 9.007163,-11.074061 24.943559,-13.515449 36.84948,-5.647689 11.9056,7.867549 15.89983,23.47929 9.24604,36.107109 -6.65379,12.62783 -21.789044,18.15996 -35.009672,12.78812 C 69.534865,115.21555 62.538358,100.69047 66.58,87 L 51.64,77.19 C 45.371896,87.281438 33.406077,92.303695 21.813809,89.708646 10.221582,87.113605 1.5402147,77.469268 0.17243035,65.668708 -1.195354,53.868149 5.0497599,42.493706 15.741038,37.31582 26.432356,32.137915 39.229731,34.289909 47.64,42.68 c 1.037018,1.034575 1.996289,2.144254 2.87,3.32 z M 44,46.37 C 36.337271,38.702944 24.325161,37.517003 15.312417,43.537059 6.2997873,49.557039 2.7978723,61.105479 6.9447484,71.120341 11.091625,81.135203 21.73246,86.827523 32.36263,84.713965 42.992936,82.60038 50.650444,73.269796 50.65,62.43 50.65857,56.405076 48.265298,50.625234 44,46.37 Z m 65.42,32.52 c -7.65494,-7.668737 -19.66037,-8.864574 -28.676285,-2.857032 -9.015801,6.007465 -12.531958,17.54566 -8.403035,27.563272 4.128923,10.01761 14.754054,15.72724 25.384482,13.6372 C 108.35572,115.14336 116.03186,105.83545 116.06,95 c 0.009,-6.024924 -2.3847,-11.804766 -6.65,-16.06 z M 106.54,11.87 C 98.877271,4.2029439 86.865161,3.0170026 77.852417,9.0370591 68.839787,15.057039 65.337872,26.605479 69.484748,36.620341 73.631625,46.635203 84.27246,52.327523 94.90263,50.213965 105.53294,48.10038 113.19044,38.769796 113.19,27.93 c 0.009,-6.024924 -2.3847,-11.804766 -6.65,-16.06 z"
     id="path4"
     sodipodi:nodetypes="ccsssccccccsssccssscccssscccsssccccssscc" />
  <metadata
     id="metadata826">
    <rdf:RDF>
      <cc:Work
         rdf:about="">
        <dc:title>connect-people</dc:title>
      </cc:Work>
    </rdf:RDF>
  </metadata>
</svg>
