<?xml version="1.0" encoding="UTF-8"?><svg xmlns="http://www.w3.org/2000/svg" xmlns:xlink="http://www.w3.org/1999/xlink" fill-opacity="1" color-rendering="auto" color-interpolation="auto" text-rendering="auto" stroke="black" stroke-linecap="square" width="1492" stroke-miterlimit="10" shape-rendering="auto" stroke-opacity="1" fill="black" stroke-dasharray="none" font-weight="normal" stroke-width="1" height="940" font-family="'Dialog'" font-style="normal" stroke-linejoin="miter" font-size="12px" stroke-dashoffset="0" image-rendering="auto">
  <!--Generated by ySVG 2.6-->
  <defs id="genericDefs"/>
  <g>
    <defs id="defs1">
      <clipPath clipPathUnits="userSpaceOnUse" id="clipPath1">
        <path d="M0 0 L1492 0 L1492 940 L0 940 L0 0 Z"/>
      </clipPath>
      <clipPath clipPathUnits="userSpaceOnUse" id="clipPath2">
        <path d="M1267 907 L2221.8799 907 L2221.8799 1508.6 L1267 1508.6 L1267 907 Z"/>
      </clipPath>
    </defs>
    <g fill="white" text-rendering="geometricPrecision" shape-rendering="geometricPrecision" transform="scale(1.5625,1.5625) translate(-1267,-907)" stroke="white">
      <rect x="1267" width="955" height="602" y="907" clip-path="url(#clipPath2)" stroke="none"/>
    </g>
    <g text-rendering="geometricPrecision" stroke-miterlimit="1.45" shape-rendering="geometricPrecision" transform="matrix(1.5625,0,0,1.5625,-1979.6875,-1417.1875)" stroke-linecap="butt">
      <rect x="1347.788" y="920.7568" clip-path="url(#clipPath2)" fill="none" width="194.16" rx="4" ry="4" height="30"/>
      <text x="1384.4608" xml:space="preserve" y="939.9111" clip-path="url(#clipPath2)" font-family="sans-serif" stroke="none">Create Infinite Node</text>
      <rect x="1347.788" y="970.85" clip-path="url(#clipPath2)" fill="none" width="194.16" rx="4" ry="4" height="30"/>
      <text x="1362.8368" xml:space="preserve" y="990.0043" clip-path="url(#clipPath2)" font-family="sans-serif" stroke="none">Sample Number of Feeders</text>
      <path fill="none" d="M1444.868 950.775 L1444.868 962.8815" clip-path="url(#clipPath2)"/>
      <path d="M1444.868 970.8815 L1449.868 958.8815 L1444.868 961.8815 L1439.868 958.8815 Z" clip-path="url(#clipPath2)" stroke="none"/>
      <text x="1723.8651" font-size="15px" y="936.6801" clip-path="url(#clipPath2)" font-family="sans-serif" stroke="none" xml:space="preserve">Exemplary Grid</text>
      <rect x="1646.386" y="920.7568" clip-path="url(#clipPath2)" fill="none" width="271.3255" rx="4" ry="4" height="480.5254"/>
    </g>
    <g fill="rgb(153,153,153)" text-rendering="geometricPrecision" shape-rendering="geometricPrecision" transform="matrix(1.5625,0,0,1.5625,-1979.6875,-1417.1875)" stroke="rgb(153,153,153)">
      <rect x="1783.1562" width="11.6723" height="11" y="969.2486" clip-path="url(#clipPath2)" stroke="none"/>
    </g>
    <g text-rendering="geometricPrecision" stroke-miterlimit="1.45" shape-rendering="geometricPrecision" transform="matrix(1.5625,0,0,1.5625,-1979.6875,-1417.1875)" stroke-linecap="butt">
      <rect fill="none" x="1783.1562" width="11.6723" height="11" y="969.2486" clip-path="url(#clipPath2)"/>
      <text x="2028.8286" font-size="15px" y="936.6801" clip-path="url(#clipPath2)" font-family="sans-serif" stroke="none" xml:space="preserve">Legend</text>
      <rect x="1932.7115" y="920.7568" clip-path="url(#clipPath2)" fill="none" width="247.5979" rx="4" ry="4" height="480.5254"/>
    </g>
    <g fill="rgb(153,153,153)" text-rendering="geometricPrecision" shape-rendering="geometricPrecision" transform="matrix(1.5625,0,0,1.5625,-1979.6875,-1417.1875)" stroke="rgb(153,153,153)">
      <rect x="1971.3222" width="11.6723" height="11" y="964.3784" clip-path="url(#clipPath2)" stroke="none"/>
    </g>
    <g text-rendering="geometricPrecision" stroke-miterlimit="1.45" shape-rendering="geometricPrecision" transform="matrix(1.5625,0,0,1.5625,-1979.6875,-1417.1875)" stroke-linecap="butt">
      <rect fill="none" x="1971.3222" width="11.6723" height="11" y="964.3784" clip-path="url(#clipPath2)"/>
      <text x="1986.6323" xml:space="preserve" y="974.0327" clip-path="url(#clipPath2)" font-family="sans-serif" stroke="none"> Starting Node</text>
    </g>
  </g>
</svg>
