<?xml version="1.0" encoding="UTF-8"?><svg xmlns="http://www.w3.org/2000/svg" xmlns:xlink="http://www.w3.org/1999/xlink" fill-opacity="1" color-rendering="auto" color-interpolation="auto" text-rendering="auto" stroke="black" stroke-linecap="square" width="1492" stroke-miterlimit="10" shape-rendering="auto" stroke-opacity="1" fill="black" stroke-dasharray="none" font-weight="normal" stroke-width="1" height="957" font-family="'Dialog'" font-style="normal" stroke-linejoin="miter" font-size="12px" stroke-dashoffset="0" image-rendering="auto">
  <!--Generated by ySVG 2.6-->
  <defs id="genericDefs"/>
  <g>
    <defs id="defs1">
      <clipPath clipPathUnits="userSpaceOnUse" id="clipPath1">
        <path d="M0 0 L1492 0 L1492 957 L0 957 L0 0 Z"/>
      </clipPath>
      <clipPath clipPathUnits="userSpaceOnUse" id="clipPath2">
        <path d="M1267 907 L2221.8799 907 L2221.8799 1519.48 L1267 1519.48 L1267 907 Z"/>
      </clipPath>
    </defs>
    <g fill="white" text-rendering="geometricPrecision" shape-rendering="geometricPrecision" transform="scale(1.5625,1.5625) translate(-1267,-907)" stroke="white">
      <rect x="1267" width="955" height="613" y="907" clip-path="url(#clipPath2)" stroke="none"/>
    </g>
    <g text-rendering="geometricPrecision" stroke-miterlimit="1.45" shape-rendering="geometricPrecision" transform="matrix(1.5625,0,0,1.5625,-1979.6875,-1417.1875)" stroke-linecap="butt">
      <rect x="1347.788" y="920.7568" clip-path="url(#clipPath2)" fill="none" width="194.16" rx="4" ry="4" height="30"/>
      <text x="1384.4608" xml:space="preserve" y="939.9111" clip-path="url(#clipPath2)" font-family="sans-serif" stroke="none">Create Infinite Node</text>
      <rect x="1347.788" y="970.85" clip-path="url(#clipPath2)" fill="none" width="194.16" rx="4" ry="4" height="30"/>
      <text x="1362.8368" xml:space="preserve" y="990.0043" clip-path="url(#clipPath2)" font-family="sans-serif" stroke="none">Sample Number of Feeders</text>
      <path fill="none" d="M1444.868 950.775 L1444.868 962.8815" clip-path="url(#clipPath2)"/>
      <path d="M1444.868 970.8815 L1449.868 958.8815 L1444.868 961.8815 L1439.868 958.8815 Z" clip-path="url(#clipPath2)" stroke="none"/>
      <text x="1723.8651" font-size="15px" y="936.6801" clip-path="url(#clipPath2)" font-family="sans-serif" stroke="none" xml:space="preserve">Exemplary Grid</text>
      <rect x="1646.386" y="920.7568" clip-path="url(#clipPath2)" fill="none" width="271.3255" rx="4" ry="4" height="480.5254"/>
    </g>
    <g fill="rgb(153,153,153)" text-rendering="geometricPrecision" shape-rendering="geometricPrecision" transform="matrix(1.5625,0,0,1.5625,-1979.6875,-1417.1875)" stroke="rgb(153,153,153)">
      <rect x="1783.1562" width="11.6723" height="11" y="969.2486" clip-path="url(#clipPath2)" stroke="none"/>
    </g>
    <g text-rendering="geometricPrecision" stroke-miterlimit="1.45" shape-rendering="geometricPrecision" transform="matrix(1.5625,0,0,1.5625,-1979.6875,-1417.1875)" stroke-linecap="butt">
      <rect fill="none" x="1783.1562" width="11.6723" height="11" y="969.2486" clip-path="url(#clipPath2)"/>
    </g>
    <g transform="matrix(1.5625,0,0,1.5625,-1979.6875,-1417.1875)" fill-opacity="0.6" fill="rgb(175,54,140)" text-rendering="geometricPrecision" shape-rendering="geometricPrecision" stroke="rgb(175,54,140)" stroke-opacity="0.6">
      <rect x="1829.0486" width="11.6723" height="11" y="1100.8345" clip-path="url(#clipPath2)" stroke="none"/>
    </g>
    <g text-rendering="geometricPrecision" stroke-miterlimit="1.45" shape-rendering="geometricPrecision" transform="matrix(1.5625,0,0,1.5625,-1979.6875,-1417.1875)" stroke-linecap="butt">
      <rect fill="none" x="1829.0486" width="11.6723" height="11" y="1100.8345" clip-path="url(#clipPath2)"/>
    </g>
    <g transform="matrix(1.5625,0,0,1.5625,-1979.6875,-1417.1875)" fill-opacity="0.6" fill="rgb(236,101,37)" text-rendering="geometricPrecision" shape-rendering="geometricPrecision" stroke="rgb(236,101,37)" stroke-opacity="0.6">
      <rect x="1732.3201" width="11.6723" height="11" y="1100.8345" clip-path="url(#clipPath2)" stroke="none"/>
    </g>
    <g text-rendering="geometricPrecision" stroke-miterlimit="1.45" shape-rendering="geometricPrecision" transform="matrix(1.5625,0,0,1.5625,-1979.6875,-1417.1875)" stroke-linecap="butt">
      <rect fill="none" x="1732.3201" width="11.6723" height="11" y="1100.8345" clip-path="url(#clipPath2)"/>
      <circle fill="none" r="15" clip-path="url(#clipPath2)" cx="1738.1562" cy="1025.2486"/>
      <circle fill="none" r="15" clip-path="url(#clipPath2)" cx="1738.1562" cy="1041.7545"/>
      <circle fill="none" r="15" clip-path="url(#clipPath2)" cx="1834.8848" cy="1025.2486"/>
      <circle fill="none" r="15" clip-path="url(#clipPath2)" cx="1834.8848" cy="1041.7545"/>
    </g>
    <g transform="matrix(1.5625,0,0,1.5625,-1979.6875,-1417.1875)" fill-opacity="0.6" fill="rgb(175,54,140)" text-rendering="geometricPrecision" shape-rendering="geometricPrecision" stroke="rgb(175,54,140)" stroke-opacity="0.6">
      <rect x="1874.941" width="11.6723" height="11" y="1100.8345" clip-path="url(#clipPath2)" stroke="none"/>
    </g>
    <g text-rendering="geometricPrecision" stroke-miterlimit="1.45" shape-rendering="geometricPrecision" transform="matrix(1.5625,0,0,1.5625,-1979.6875,-1417.1875)" stroke-linecap="butt">
      <rect fill="none" x="1874.941" width="11.6723" height="11" y="1100.8345" clip-path="url(#clipPath2)"/>
    </g>
    <g transform="matrix(1.5625,0,0,1.5625,-1979.6875,-1417.1875)" fill-opacity="0.6" fill="rgb(175,54,140)" text-rendering="geometricPrecision" shape-rendering="geometricPrecision" stroke="rgb(175,54,140)" stroke-opacity="0.6">
      <rect x="1829.0486" width="11.6723" height="11" y="1147.8673" clip-path="url(#clipPath2)" stroke="none"/>
    </g>
    <g text-rendering="geometricPrecision" stroke-miterlimit="1.45" shape-rendering="geometricPrecision" transform="matrix(1.5625,0,0,1.5625,-1979.6875,-1417.1875)" stroke-linecap="butt">
      <rect fill="none" x="1829.0486" width="11.6723" height="11" y="1147.8673" clip-path="url(#clipPath2)"/>
    </g>
    <g transform="matrix(1.5625,0,0,1.5625,-1979.6875,-1417.1875)" fill-opacity="0.6" fill="rgb(175,54,140)" text-rendering="geometricPrecision" shape-rendering="geometricPrecision" stroke="rgb(175,54,140)" stroke-opacity="0.6">
      <rect x="1829.0486" width="11.6723" height="11" y="1194.9001" clip-path="url(#clipPath2)" stroke="none"/>
    </g>
    <g text-rendering="geometricPrecision" stroke-miterlimit="1.45" shape-rendering="geometricPrecision" transform="matrix(1.5625,0,0,1.5625,-1979.6875,-1417.1875)" stroke-linecap="butt">
      <rect fill="none" x="1829.0486" width="11.6723" height="11" y="1194.9001" clip-path="url(#clipPath2)"/>
    </g>
    <g transform="matrix(1.5625,0,0,1.5625,-1979.6875,-1417.1875)" fill-opacity="0.6" fill="rgb(175,54,140)" text-rendering="geometricPrecision" shape-rendering="geometricPrecision" stroke="rgb(175,54,140)" stroke-opacity="0.6">
      <rect x="1874.941" width="11.6723" height="11" y="1147.8673" clip-path="url(#clipPath2)" stroke="none"/>
    </g>
    <g text-rendering="geometricPrecision" stroke-miterlimit="1.45" shape-rendering="geometricPrecision" transform="matrix(1.5625,0,0,1.5625,-1979.6875,-1417.1875)" stroke-linecap="butt">
      <rect fill="none" x="1874.941" width="11.6723" height="11" y="1147.8673" clip-path="url(#clipPath2)"/>
    </g>
    <g transform="matrix(1.5625,0,0,1.5625,-1979.6875,-1417.1875)" fill-opacity="0.6" fill="rgb(236,101,37)" text-rendering="geometricPrecision" shape-rendering="geometricPrecision" stroke="rgb(236,101,37)" stroke-opacity="0.6">
      <rect x="1783.1562" width="11.6723" height="11" y="1147.8673" clip-path="url(#clipPath2)" stroke="none"/>
    </g>
    <g text-rendering="geometricPrecision" stroke-miterlimit="1.45" shape-rendering="geometricPrecision" transform="matrix(1.5625,0,0,1.5625,-1979.6875,-1417.1875)" stroke-linecap="butt">
      <rect fill="none" x="1783.1562" width="11.6723" height="11" y="1147.8673" clip-path="url(#clipPath2)"/>
    </g>
    <g transform="matrix(1.5625,0,0,1.5625,-1979.6875,-1417.1875)" fill-opacity="0.6" fill="rgb(236,101,37)" text-rendering="geometricPrecision" shape-rendering="geometricPrecision" stroke="rgb(236,101,37)" stroke-opacity="0.6">
      <rect x="1783.1562" width="11.6723" height="11" y="1194.9001" clip-path="url(#clipPath2)" stroke="none"/>
    </g>
    <g text-rendering="geometricPrecision" stroke-miterlimit="1.45" shape-rendering="geometricPrecision" transform="matrix(1.5625,0,0,1.5625,-1979.6875,-1417.1875)" stroke-linecap="butt">
      <rect fill="none" x="1783.1562" width="11.6723" height="11" y="1194.9001" clip-path="url(#clipPath2)"/>
    </g>
    <g transform="matrix(1.5625,0,0,1.5625,-1979.6875,-1417.1875)" fill-opacity="0.6" fill="rgb(175,54,140)" text-rendering="geometricPrecision" shape-rendering="geometricPrecision" stroke="rgb(175,54,140)" stroke-opacity="0.6">
      <rect x="1829.0486" width="11.6723" height="11" y="1241.9329" clip-path="url(#clipPath2)" stroke="none"/>
    </g>
    <g text-rendering="geometricPrecision" stroke-miterlimit="1.45" shape-rendering="geometricPrecision" transform="matrix(1.5625,0,0,1.5625,-1979.6875,-1417.1875)" stroke-linecap="butt">
      <rect fill="none" x="1829.0486" width="11.6723" height="11" y="1241.9329" clip-path="url(#clipPath2)"/>
    </g>
    <g transform="matrix(1.5625,0,0,1.5625,-1979.6875,-1417.1875)" fill-opacity="0.6" fill="rgb(207,24,32)" text-rendering="geometricPrecision" shape-rendering="geometricPrecision" stroke="rgb(207,24,32)" stroke-opacity="0.6">
      <rect x="1686.4277" width="11.6723" height="11" y="1241.9329" clip-path="url(#clipPath2)" stroke="none"/>
    </g>
    <g text-rendering="geometricPrecision" stroke-miterlimit="1.45" shape-rendering="geometricPrecision" transform="matrix(1.5625,0,0,1.5625,-1979.6875,-1417.1875)" stroke-linecap="butt">
      <rect fill="none" x="1686.4277" width="11.6723" height="11" y="1241.9329" clip-path="url(#clipPath2)"/>
    </g>
    <g transform="matrix(1.5625,0,0,1.5625,-1979.6875,-1417.1875)" fill-opacity="0.6" fill="rgb(207,24,32)" text-rendering="geometricPrecision" shape-rendering="geometricPrecision" stroke="rgb(207,24,32)" stroke-opacity="0.6">
      <rect x="1686.4277" width="11.6723" height="11" y="1194.9001" clip-path="url(#clipPath2)" stroke="none"/>
    </g>
    <g text-rendering="geometricPrecision" stroke-miterlimit="1.45" shape-rendering="geometricPrecision" transform="matrix(1.5625,0,0,1.5625,-1979.6875,-1417.1875)" stroke-linecap="butt">
      <rect fill="none" x="1686.4277" width="11.6723" height="11" y="1194.9001" clip-path="url(#clipPath2)"/>
    </g>
    <g transform="matrix(1.5625,0,0,1.5625,-1979.6875,-1417.1875)" fill-opacity="0.6" fill="rgb(207,24,32)" text-rendering="geometricPrecision" shape-rendering="geometricPrecision" stroke="rgb(207,24,32)" stroke-opacity="0.6">
      <rect x="1686.4277" width="11.6723" height="11" y="1147.8673" clip-path="url(#clipPath2)" stroke="none"/>
    </g>
    <g text-rendering="geometricPrecision" stroke-miterlimit="1.45" shape-rendering="geometricPrecision" transform="matrix(1.5625,0,0,1.5625,-1979.6875,-1417.1875)" stroke-linecap="butt">
      <rect fill="none" x="1686.4277" width="11.6723" height="11" y="1147.8673" clip-path="url(#clipPath2)"/>
    </g>
    <g transform="matrix(1.5625,0,0,1.5625,-1979.6875,-1417.1875)" fill-opacity="0.6" fill="rgb(236,101,37)" text-rendering="geometricPrecision" shape-rendering="geometricPrecision" stroke="rgb(236,101,37)" stroke-opacity="0.6">
      <rect x="1732.3201" width="11.6723" height="11" y="1194.9001" clip-path="url(#clipPath2)" stroke="none"/>
    </g>
    <g text-rendering="geometricPrecision" stroke-miterlimit="1.45" shape-rendering="geometricPrecision" transform="matrix(1.5625,0,0,1.5625,-1979.6875,-1417.1875)" stroke-linecap="butt">
      <rect fill="none" x="1732.3201" width="11.6723" height="11" y="1194.9001" clip-path="url(#clipPath2)"/>
    </g>
    <g transform="matrix(1.5625,0,0,1.5625,-1979.6875,-1417.1875)" fill-opacity="0.6" fill="rgb(236,101,37)" text-rendering="geometricPrecision" shape-rendering="geometricPrecision" stroke="rgb(236,101,37)" stroke-opacity="0.6">
      <rect x="1732.3201" width="11.6723" height="11" y="1241.9329" clip-path="url(#clipPath2)" stroke="none"/>
    </g>
    <g text-rendering="geometricPrecision" stroke-miterlimit="1.45" shape-rendering="geometricPrecision" transform="matrix(1.5625,0,0,1.5625,-1979.6875,-1417.1875)" stroke-linecap="butt">
      <rect fill="none" x="1732.3201" width="11.6723" height="11" y="1241.9329" clip-path="url(#clipPath2)"/>
    </g>
    <g transform="matrix(1.5625,0,0,1.5625,-1979.6875,-1417.1875)" fill-opacity="0.6" fill="rgb(236,101,37)" text-rendering="geometricPrecision" shape-rendering="geometricPrecision" stroke="rgb(236,101,37)" stroke-opacity="0.6">
      <rect x="1732.3201" width="11.6723" height="11" y="1147.8673" clip-path="url(#clipPath2)" stroke="none"/>
    </g>
    <g text-rendering="geometricPrecision" stroke-miterlimit="1.45" shape-rendering="geometricPrecision" transform="matrix(1.5625,0,0,1.5625,-1979.6875,-1417.1875)" stroke-linecap="butt">
      <rect fill="none" x="1732.3201" width="11.6723" height="11" y="1147.8673" clip-path="url(#clipPath2)"/>
      <path fill="none" d="M1783.1562 974.7486 L1738.1562 974.7486 L1738.1562 1010.2486" clip-path="url(#clipPath2)"/>
      <path fill="none" d="M1738.1562 1056.7545 L1738.1562 1100.8345" clip-path="url(#clipPath2)"/>
      <path fill="none" d="M1794.8285 974.7486 L1834.8848 974.7486 L1834.8848 1010.2486" clip-path="url(#clipPath2)"/>
      <path fill="none" d="M1834.8848 1056.7545 L1834.8848 1100.8345" clip-path="url(#clipPath2)"/>
      <path fill="none" d="M1840.7209 1106.3345 L1874.9409 1106.3345" clip-path="url(#clipPath2)"/>
      <path fill="none" d="M1834.8848 1111.8345 L1834.8848 1147.8673" clip-path="url(#clipPath2)"/>
      <path fill="none" d="M1834.8848 1158.8673 L1834.8848 1194.9001" clip-path="url(#clipPath2)"/>
      <path fill="none" d="M1880.7771 1111.8345 L1880.7771 1147.8673" clip-path="url(#clipPath2)"/>
      <path fill="none" d="M1829.0486 1153.3673 L1794.8285 1153.3673" clip-path="url(#clipPath2)"/>
      <path fill="none" d="M1788.9924 1158.8673 L1788.9924 1194.9001" clip-path="url(#clipPath2)"/>
      <path fill="none" d="M1834.8848 1205.9001 L1834.8848 1241.933" clip-path="url(#clipPath2)"/>
      <path fill="none" d="M1692.2638 1205.9001 L1692.2638 1241.933" clip-path="url(#clipPath2)"/>
      <path fill="none" d="M1692.2638 1158.8673 L1692.2638 1194.9001" clip-path="url(#clipPath2)"/>
      <path fill="none" d="M1738.1562 1205.9001 L1738.1562 1241.933" clip-path="url(#clipPath2)"/>
      <path fill="none" stroke-dasharray="6,2" d="M1743.9924 1247.433 L1829.0486 1247.433" clip-path="url(#clipPath2)"/>
      <path fill="none" d="M1738.1562 1111.8345 L1738.1562 1147.8673" clip-path="url(#clipPath2)"/>
      <path fill="none" d="M1732.3201 1153.3673 L1698.1 1153.3673" clip-path="url(#clipPath2)"/>
      <path fill="none" d="M1738.1562 1158.8673 L1738.1562 1194.9001" clip-path="url(#clipPath2)"/>
      <text x="2028.8286" font-size="15px" y="936.6801" clip-path="url(#clipPath2)" font-family="sans-serif" stroke="none" xml:space="preserve">Legend</text>
      <rect x="1932.7115" y="920.7568" clip-path="url(#clipPath2)" fill="none" width="247.5979" rx="4" ry="4" height="480.5254"/>
    </g>
    <g fill="rgb(153,153,153)" text-rendering="geometricPrecision" shape-rendering="geometricPrecision" transform="matrix(1.5625,0,0,1.5625,-1979.6875,-1417.1875)" stroke="rgb(153,153,153)">
      <rect x="1971.3222" width="11.6723" height="11" y="964.3784" clip-path="url(#clipPath2)" stroke="none"/>
    </g>
    <g text-rendering="geometricPrecision" stroke-miterlimit="1.45" shape-rendering="geometricPrecision" transform="matrix(1.5625,0,0,1.5625,-1979.6875,-1417.1875)" stroke-linecap="butt">
      <rect fill="none" x="1971.3222" width="11.6723" height="11" y="964.3784" clip-path="url(#clipPath2)"/>
      <text x="1986.6323" xml:space="preserve" y="974.0327" clip-path="url(#clipPath2)" font-family="sans-serif" stroke="none"> Starting Node</text>
      <rect x="1971.3222" y="990.2568" clip-path="url(#clipPath2)" fill="none" width="11.6723" height="11" stroke-width="3"/>
      <text x="1991.6729" xml:space="preserve" y="999.9111" clip-path="url(#clipPath2)" font-family="sans-serif" stroke="none">Active Node</text>
    </g>
    <g transform="matrix(1.5625,0,0,1.5625,-1979.6875,-1417.1875)" fill-opacity="0.6" fill="rgb(207,24,32)" text-rendering="geometricPrecision" shape-rendering="geometricPrecision" stroke="rgb(207,24,32)" stroke-opacity="0.6">
      <rect x="1971.3222" width="11.6723" height="11" y="1067.892" clip-path="url(#clipPath2)" stroke="none"/>
    </g>
    <g text-rendering="geometricPrecision" stroke-miterlimit="1.45" shape-rendering="geometricPrecision" transform="matrix(1.5625,0,0,1.5625,-1979.6875,-1417.1875)" stroke-linecap="butt">
      <rect fill="none" x="1971.3222" width="11.6723" height="11" y="1067.892" clip-path="url(#clipPath2)"/>
      <text x="1988.9945" xml:space="preserve" y="1077.5463" clip-path="url(#clipPath2)" font-family="sans-serif" stroke="none"> Industrial</text>
    </g>
    <g transform="matrix(1.5625,0,0,1.5625,-1979.6875,-1417.1875)" fill-opacity="0.6" fill="rgb(236,101,37)" text-rendering="geometricPrecision" shape-rendering="geometricPrecision" stroke="rgb(236,101,37)" stroke-opacity="0.6">
      <rect x="1971.3222" width="11.6723" height="11" y="1042.0136" clip-path="url(#clipPath2)" stroke="none"/>
    </g>
    <g text-rendering="geometricPrecision" stroke-miterlimit="1.45" shape-rendering="geometricPrecision" transform="matrix(1.5625,0,0,1.5625,-1979.6875,-1417.1875)" stroke-linecap="butt">
      <rect fill="none" x="1971.3222" width="11.6723" height="11" y="1042.0136" clip-path="url(#clipPath2)"/>
      <text x="1992.5046" xml:space="preserve" y="1051.6678" clip-path="url(#clipPath2)" font-family="sans-serif" stroke="none">Commercial</text>
    </g>
    <g transform="matrix(1.5625,0,0,1.5625,-1979.6875,-1417.1875)" fill-opacity="0.6" fill="rgb(175,54,140)" text-rendering="geometricPrecision" shape-rendering="geometricPrecision" stroke="rgb(175,54,140)" stroke-opacity="0.6">
      <rect x="1971.3222" width="11.6723" height="11" y="1016.1352" clip-path="url(#clipPath2)" stroke="none"/>
    </g>
    <g text-rendering="geometricPrecision" stroke-miterlimit="1.45" shape-rendering="geometricPrecision" transform="matrix(1.5625,0,0,1.5625,-1979.6875,-1417.1875)" stroke-linecap="butt">
      <rect fill="none" x="1971.3222" width="11.6723" height="11" y="1016.1352" clip-path="url(#clipPath2)"/>
      <text x="1992.7964" xml:space="preserve" y="1025.7896" clip-path="url(#clipPath2)" font-family="sans-serif" stroke="none">Residential</text>
      <rect x="2125.0248" y="1235.2761" clip-path="url(#clipPath2)" fill="none" width="11.6723" height="11" stroke="rgb(153,153,153)"/>
      <text x="2104.3794" xml:space="preserve" y="1223.4384" clip-path="url(#clipPath2)" font-family="sans-serif" stroke="none">Terminal</text>
      <rect fill="none" x="2125.0248" width="11.6723" height="11" y="1282.3089" clip-path="url(#clipPath2)"/>
      <rect x="2048.1735" y="1329.3417" clip-path="url(#clipPath2)" fill="none" width="11.6723" height="11" stroke="rgb(153,153,153)"/>
      <rect fill="none" x="2048.1735" width="11.6723" height="11" y="1282.3089" clip-path="url(#clipPath2)"/>
      <text x="2015.3612" xml:space="preserve" y="1223.072" clip-path="url(#clipPath2)" font-family="sans-serif" stroke="none">Service Drop</text>
      <rect x="2048.1735" y="1235.2761" clip-path="url(#clipPath2)" fill="none" width="11.6723" height="11" stroke="rgb(153,153,153)"/>
      <rect x="2016.5758" y="1282.3089" clip-path="url(#clipPath2)" fill="none" width="11.6723" height="11" stroke="rgb(153,153,153)"/>
      <rect x="1971.3222" y="1329.3417" clip-path="url(#clipPath2)" fill="none" width="11.6723" height="11" stroke="rgb(153,153,153)"/>
      <rect fill="none" x="1971.3222" width="11.6723" height="11" y="1282.3089" clip-path="url(#clipPath2)"/>
      <text x="1952.9913" xml:space="preserve" y="1223.527" clip-path="url(#clipPath2)" font-family="sans-serif" stroke="none">Junction</text>
      <rect x="1971.3222" y="1235.2761" clip-path="url(#clipPath2)" fill="none" width="11.6723" height="11" stroke="rgb(153,153,153)"/>
      <rect x="1947.7115" y="1175.0736" clip-path="url(#clipPath2)" fill="none" width="217.5979" rx="4" ry="4" height="21.4143"/>
      <text x="2015.5974" xml:space="preserve" y="1189.9351" clip-path="url(#clipPath2)" font-family="sans-serif" stroke="none">Branch Types</text>
      <path fill="none" d="M2130.8608 1246.276 L2130.8608 1282.3088" clip-path="url(#clipPath2)"/>
      <path fill="none" d="M2130.8608 1293.3088 L2130.8608 1301.3992" clip-path="url(#clipPath2)"/>
      <path d="M2130.8608 1312.3992 L2136.8608 1300.3992 L2124.8608 1300.3992 Z" clip-path="url(#clipPath2)" stroke="none"/>
      <path fill="none" d="M2059.8457 1287.8088 L2068.7712 1287.8088" clip-path="url(#clipPath2)"/>
      <path d="M2079.7712 1287.8088 L2067.7712 1281.8088 L2067.7712 1293.8088 Z" clip-path="url(#clipPath2)" stroke="none"/>
      <path fill="none" d="M2054.0098 1293.3088 L2054.0098 1329.3417" clip-path="url(#clipPath2)"/>
      <path fill="none" d="M2054.0098 1246.276 L2054.0098 1282.3088" clip-path="url(#clipPath2)"/>
      <path fill="none" d="M1982.9945 1287.8088 L2016.5758 1287.8088" clip-path="url(#clipPath2)"/>
      <path fill="none" d="M1977.1583 1293.3088 L1977.1583 1329.3417" clip-path="url(#clipPath2)"/>
      <path fill="none" d="M1977.1583 1246.276 L1977.1583 1282.3088" clip-path="url(#clipPath2)"/>
      <text x="1305.5126" font-size="15px" y="1036.8667" clip-path="url(#clipPath2)" font-family="sans-serif" stroke="none" xml:space="preserve">For each feeder:</text>
      <rect x="1303.5126" y="1020.9433" clip-path="url(#clipPath2)" fill="none" width="282.7107" stroke-dasharray="6,2" rx="4" ry="4" height="380.3389"/>
      <rect x="1347.788" y="1057.4042" clip-path="url(#clipPath2)" fill="none" width="194.16" rx="4" ry="4" height="30"/>
      <text x="1372.5751" xml:space="preserve" y="1076.5586" clip-path="url(#clipPath2)" font-family="sans-serif" stroke="none">Assign Feeder Structure</text>
      <rect x="1347.788" y="1104.437" clip-path="url(#clipPath2)" fill="none" width="194.16" rx="4" ry="4" height="30"/>
      <text x="1371.2274" xml:space="preserve" y="1116.6069" clip-path="url(#clipPath2)" font-family="sans-serif" stroke="none">Insert Start Components</text>
      <text x="1379.5448" xml:space="preserve" y="1130.5757" clip-path="url(#clipPath2)" font-family="sans-serif" stroke="none">(Transformer, Switch)</text>
      <path fill="none" d="M1444.868 1000.8364 L1444.868 1012.9348" clip-path="url(#clipPath2)"/>
      <path d="M1444.868 1020.9348 L1449.868 1008.9348 L1444.868 1011.9348 L1439.868 1008.9348 Z" clip-path="url(#clipPath2)" stroke="none"/>
      <path fill="none" d="M1444.868 1087.4235 L1444.868 1096.4619" clip-path="url(#clipPath2)"/>
      <path d="M1444.868 1104.4619 L1449.868 1092.4619 L1444.868 1095.4619 L1439.868 1092.4619 Z" clip-path="url(#clipPath2)" stroke="none"/>
      <text x="1334.788" font-size="15px" y="1172.2051" clip-path="url(#clipPath2)" font-family="sans-serif" stroke="none" xml:space="preserve">While active nodes:</text>
      <rect x="1332.788" y="1156.2818" clip-path="url(#clipPath2)" fill="none" width="224.16" stroke-dasharray="6,2" rx="4" ry="4" height="230.0004"/>
      <rect x="1347.788" y="1192.7427" clip-path="url(#clipPath2)" fill="none" width="194.16" rx="4" ry="4" height="30"/>
      <text x="1378.7684" xml:space="preserve" y="1211.897" clip-path="url(#clipPath2)" font-family="sans-serif" stroke="none">Max depth exceeded?</text>
      <rect x="1347.788" y="1241.9329" clip-path="url(#clipPath2)" fill="none" width="194.16" rx="4" ry="4" height="30"/>
      <text x="1382.6766" xml:space="preserve" y="1261.0873" clip-path="url(#clipPath2)" font-family="sans-serif" stroke="none">Sample Branch Type</text>
      <rect x="1347.788" y="1340.3134" clip-path="url(#clipPath2)" fill="none" width="194.16" rx="4" ry="4" height="30"/>
      <text x="1371.7313" xml:space="preserve" y="1352.4833" clip-path="url(#clipPath2)" font-family="sans-serif" stroke="none">Insert Nodes and Edges,</text>
      <text x="1356.3944" xml:space="preserve" y="1366.452" clip-path="url(#clipPath2)" font-family="sans-serif" stroke="none">add junctions to active nodes</text>
      <rect x="1347.788" y="1291.1232" clip-path="url(#clipPath2)" fill="none" width="194.16" rx="4" ry="4" height="30"/>
      <text x="1372.2001" xml:space="preserve" y="1310.2775" clip-path="url(#clipPath2)" font-family="sans-serif" stroke="none">Apply Markov Transition</text>
      <rect x="1347.788" y="1421.3754" clip-path="url(#clipPath2)" fill="none" width="194.16" rx="4" ry="4" height="30"/>
      <text x="1375.9471" xml:space="preserve" y="1440.5297" clip-path="url(#clipPath2)" font-family="sans-serif" stroke="none">Create Open Ring Nets</text>
      <path fill="none" d="M1444.868 1134.451 L1444.868 1148.2651" clip-path="url(#clipPath2)"/>
      <path d="M1444.868 1156.2651 L1449.868 1144.2651 L1444.868 1147.2651 L1439.868 1144.2651 Z" clip-path="url(#clipPath2)" stroke="none"/>
      <path fill="none" d="M1541.9557 1207.7427 L1573.9401 1207.7427 L1573.9401 1072.4043 L1549.9557 1072.4043" clip-path="url(#clipPath2)"/>
      <path d="M1541.9557 1072.4043 L1553.9557 1077.4043 L1550.9557 1072.4043 L1553.9557 1067.4043 Z" clip-path="url(#clipPath2)" stroke="none"/>
      <text x="1509.9" xml:space="preserve" y="1039.5742" clip-path="url(#clipPath2)" font-family="sans-serif" stroke="none">Terminate feeder. </text>
      <text x="1505.2477" xml:space="preserve" y="1053.543" clip-path="url(#clipPath2)" font-family="sans-serif" stroke="none">Move to next feeder</text>
      <path fill="none" d="M1444.868 1222.7783 L1444.868 1233.9569" clip-path="url(#clipPath2)"/>
      <path d="M1444.868 1241.9569 L1449.868 1229.9569 L1444.868 1232.9569 L1439.868 1229.9569 Z" clip-path="url(#clipPath2)" stroke="none"/>
      <path fill="none" d="M1444.868 1271.9686 L1444.868 1283.1472" clip-path="url(#clipPath2)"/>
      <path d="M1444.868 1291.1472 L1449.868 1279.1472 L1444.868 1282.1472 L1439.868 1279.1472 Z" clip-path="url(#clipPath2)" stroke="none"/>
      <path fill="none" d="M1444.868 1321.1588 L1444.868 1332.3374" clip-path="url(#clipPath2)"/>
      <path d="M1444.868 1340.3374 L1449.868 1328.3374 L1444.868 1331.3374 L1439.868 1328.3374 Z" clip-path="url(#clipPath2)" stroke="none"/>
      <path fill="none" d="M1444.868 1401.2606 L1444.868 1413.3899" clip-path="url(#clipPath2)"/>
      <path d="M1444.868 1421.3899 L1449.868 1409.3899 L1444.868 1412.3899 L1439.868 1409.3899 Z" clip-path="url(#clipPath2)" stroke="none"/>
    </g>
  </g>
</svg>
